<svg width="26" height="35" viewBox="0 0 26 35" fill="none" xmlns="http://www.w3.org/2000/svg">
<path d="M16 21V0.323078H18.9687V3.44616H19.1771C19.5417 2.42308 20.2014 1.59295 21.1562 0.955769C22.1111 0.31859 23.1875 0 24.3854 0C24.6111 0 24.8932 0.00448732 25.2318 0.0134619C25.5703 0.0224366 25.8264 0.0358985 26 0.0538478V3.28462C25.8958 3.25769 25.6571 3.21731 25.2839 3.16346C24.9193 3.10064 24.533 3.06923 24.125 3.06923C23.1528 3.06923 22.2847 3.28013 21.5208 3.70192C20.7656 4.11474 20.1667 4.6891 19.724 5.425C19.2899 6.15192 19.0729 6.98205 19.0729 7.91539V21H16Z" fill="#F7EFE5"/>
<path d="M10.1705 26.5568C8.06818 26.5568 6.25473 26.0928 4.73011 25.1648C3.21496 24.2273 2.04545 22.9205 1.22159 21.2443C0.407194 19.5587 0 17.5985 0 15.3636C0 13.1288 0.407194 11.1591 1.22159 9.45454C2.04545 7.74053 3.19129 6.4053 4.65909 5.44886C6.13636 4.48295 7.85985 4 9.82954 4C10.9659 4 12.0881 4.18939 13.196 4.56818C14.304 4.94697 15.3125 5.5625 16.2216 6.41477C17.1307 7.25758 17.8551 8.375 18.3949 9.76704C18.9347 11.1591 19.2045 12.8731 19.2045 14.9091V16.3295H2.38636V13.4318H15.7955C15.7955 12.2008 15.5492 11.1023 15.0568 10.1364C14.5739 9.17045 13.8826 8.40814 12.983 7.84943C12.0928 7.29072 11.0417 7.01136 9.82954 7.01136C8.49432 7.01136 7.33901 7.3428 6.36363 8.00568C5.39772 8.65909 4.65436 9.51136 4.13352 10.5625C3.61269 11.6136 3.35227 12.7405 3.35227 13.9432V15.875C3.35227 17.5227 3.63636 18.9195 4.20454 20.0653C4.7822 21.2017 5.58238 22.0682 6.60511 22.6648C7.62784 23.2519 8.81629 23.5455 10.1705 23.5455C11.0511 23.5455 11.8466 23.4223 12.5568 23.1761C13.2765 22.9205 13.8968 22.5417 14.4176 22.0398C14.9384 21.5284 15.3409 20.8939 15.625 20.1364L18.8636 21.0455C18.5227 22.1439 17.9498 23.1098 17.1449 23.9432C16.34 24.767 15.3456 25.411 14.1619 25.875C12.9782 26.3295 11.6477 26.5568 10.1705 26.5568Z" fill="#F7EFE5"/>
<path d="M9.82955 34.7386C8.21023 34.7386 6.81818 34.5303 5.65341 34.1136C4.48864 33.7064 3.51799 33.1667 2.74148 32.4943C1.97443 31.8314 1.36364 31.1212 0.909092 30.3636L3.57955 28.4886C3.88258 28.8864 4.2661 29.3409 4.73011 29.8523C5.19413 30.3731 5.8286 30.8229 6.63352 31.2017C7.44792 31.59 8.51326 31.7841 9.82955 31.7841C11.5909 31.7841 13.0445 31.358 14.1903 30.5057C15.3362 29.6534 15.9091 28.3182 15.9091 26.5V22.0682H15.625C15.3788 22.4659 15.0284 22.9583 14.5739 23.5455C14.1288 24.1231 13.4848 24.6392 12.642 25.0938C11.8087 25.5388 10.6818 25.7614 9.26136 25.7614C7.5 25.7614 5.91856 25.3447 4.51705 24.5114C3.125 23.678 2.02178 22.4659 1.20739 20.875C0.402462 19.2841 0 17.3523 0 15.0795C0 12.8447 0.392993 10.8987 1.17898 9.24148C1.96496 7.57481 3.05871 6.28693 4.46023 5.37784C5.86174 4.45928 7.48106 4 9.31818 4C10.7386 4 11.8655 4.23674 12.6989 4.71023C13.5417 5.17424 14.1856 5.70455 14.6307 6.30114C15.0852 6.88826 15.4356 7.37121 15.6818 7.75H16.0227V4.28409H19.2614V26.7273C19.2614 28.6023 18.8352 30.1269 17.983 31.3011C17.1402 32.4848 16.0038 33.3513 14.5739 33.9006C13.1534 34.4593 11.572 34.7386 9.82955 34.7386ZM9.71591 22.75C11.0606 22.75 12.197 22.4422 13.125 21.8267C14.053 21.2112 14.7585 20.3258 15.2415 19.1705C15.7244 18.0152 15.9659 16.6326 15.9659 15.0227C15.9659 13.4508 15.7292 12.0634 15.2557 10.8608C14.7822 9.65814 14.0814 8.71591 13.1534 8.03409C12.2254 7.35227 11.0795 7.01136 9.71591 7.01136C8.29545 7.01136 7.11174 7.37121 6.16477 8.09091C5.22727 8.81061 4.52178 9.77652 4.0483 10.9886C3.58428 12.2008 3.35227 13.5455 3.35227 15.0227C3.35227 16.5379 3.58902 17.8778 4.0625 19.0426C4.54546 20.1979 5.25568 21.107 6.19318 21.7699C7.14015 22.4233 8.31439 22.75 9.71591 22.75Z" fill="#F7EFE5"/>
</svg>
