<svg width="50" height="50" viewBox="0 0 50 50" fill="none" xmlns="http://www.w3.org/2000/svg">
<rect width="50" height="50" rx="10" fill="#7743DB"/>
<path d="M30 29V8.32308H32.9687V11.4462H33.1771C33.5417 10.4231 34.2014 9.59295 35.1562 8.95577C36.1111 8.31859 37.1875 8 38.3854 8C38.6111 8 38.8932 8.00449 39.2318 8.01346C39.5703 8.02244 39.8264 8.0359 40 8.05385V11.2846C39.8958 11.2577 39.6571 11.2173 39.2839 11.1635C38.9193 11.1006 38.533 11.0692 38.125 11.0692C37.1528 11.0692 36.2847 11.2801 35.5208 11.7019C34.7656 12.1147 34.1667 12.6891 33.724 13.425C33.2899 14.1519 33.0729 14.9821 33.0729 15.9154V29H30Z" fill="white"/>
<path d="M24.1705 34.5568C22.0682 34.5568 20.2547 34.0928 18.7301 33.1648C17.215 32.2273 16.0455 30.9205 15.2216 29.2443C14.4072 27.5587 14 25.5985 14 23.3636C14 21.1288 14.4072 19.1591 15.2216 17.4545C16.0455 15.7405 17.1913 14.4053 18.6591 13.4489C20.1364 12.483 21.8598 12 23.8295 12C24.9659 12 26.0881 12.1894 27.196 12.5682C28.304 12.947 29.3125 13.5625 30.2216 14.4148C31.1307 15.2576 31.8551 16.375 32.3949 17.767C32.9347 19.1591 33.2045 20.8731 33.2045 22.9091V24.3295H16.3864V21.4318H29.7955C29.7955 20.2008 29.5492 19.1023 29.0568 18.1364C28.5739 17.1705 27.8826 16.4081 26.983 15.8494C26.0928 15.2907 25.0417 15.0114 23.8295 15.0114C22.4943 15.0114 21.339 15.3428 20.3636 16.0057C19.3977 16.6591 18.6544 17.5114 18.1335 18.5625C17.6127 19.6136 17.3523 20.7405 17.3523 21.9432V23.875C17.3523 25.5227 17.6364 26.9195 18.2045 28.0653C18.7822 29.2017 19.5824 30.0682 20.6051 30.6648C21.6278 31.2519 22.8163 31.5455 24.1705 31.5455C25.0511 31.5455 25.8466 31.4223 26.5568 31.1761C27.2765 30.9205 27.8968 30.5417 28.4176 30.0398C28.9384 29.5284 29.3409 28.8939 29.625 28.1364L32.8636 29.0455C32.5227 30.1439 31.9498 31.1098 31.1449 31.9432C30.34 32.767 29.3456 33.411 28.1619 33.875C26.9782 34.3295 25.6477 34.5568 24.1705 34.5568Z" fill="white"/>
<path d="M23.8295 42.7386C22.2102 42.7386 20.8182 42.5303 19.6534 42.1136C18.4886 41.7064 17.518 41.1667 16.7415 40.4943C15.9744 39.8314 15.3636 39.1212 14.9091 38.3636L17.5795 36.4886C17.8826 36.8864 18.2661 37.3409 18.7301 37.8523C19.1941 38.3731 19.8286 38.8229 20.6335 39.2017C21.4479 39.59 22.5133 39.7841 23.8295 39.7841C25.5909 39.7841 27.0445 39.358 28.1903 38.5057C29.3362 37.6534 29.9091 36.3182 29.9091 34.5V30.0682H29.625C29.3788 30.4659 29.0284 30.9583 28.5739 31.5455C28.1288 32.1231 27.4848 32.6392 26.642 33.0938C25.8087 33.5388 24.6818 33.7614 23.2614 33.7614C21.5 33.7614 19.9186 33.3447 18.517 32.5114C17.125 31.678 16.0218 30.4659 15.2074 28.875C14.4025 27.2841 14 25.3523 14 23.0795C14 20.8447 14.393 18.8987 15.179 17.2415C15.965 15.5748 17.0587 14.2869 18.4602 13.3778C19.8617 12.4593 21.4811 12 23.3182 12C24.7386 12 25.8655 12.2367 26.6989 12.7102C27.5417 13.1742 28.1856 13.7045 28.6307 14.3011C29.0852 14.8883 29.4356 15.3712 29.6818 15.75H30.0227V12.2841H33.2614V34.7273C33.2614 36.6023 32.8352 38.1269 31.983 39.3011C31.1402 40.4848 30.0038 41.3513 28.5739 41.9006C27.1534 42.4593 25.572 42.7386 23.8295 42.7386ZM23.7159 30.75C25.0606 30.75 26.197 30.4422 27.125 29.8267C28.053 29.2112 28.7585 28.3258 29.2415 27.1705C29.7244 26.0152 29.9659 24.6326 29.9659 23.0227C29.9659 21.4508 29.7292 20.0634 29.2557 18.8608C28.7822 17.6581 28.0814 16.7159 27.1534 16.0341C26.2254 15.3523 25.0795 15.0114 23.7159 15.0114C22.2955 15.0114 21.1117 15.3712 20.1648 16.0909C19.2273 16.8106 18.5218 17.7765 18.0483 18.9886C17.5843 20.2008 17.3523 21.5455 17.3523 23.0227C17.3523 24.5379 17.589 25.8778 18.0625 27.0426C18.5455 28.1979 19.2557 29.107 20.1932 29.7699C21.1402 30.4233 22.3144 30.75 23.7159 30.75Z" fill="white"/>
</svg>
